<svg width="48" height="48" viewBox="0 0 48 48" fill="none" xmlns="http://www.w3.org/2000/svg">
<path d="M12 3C11.4477 3 11 3.44732 11 3.9996C11 4.52167 11 5.24278 11 6.15C11 17.7 20.75 19.3608 20.75 24C20.75 28.6392 11 30.3 11 41.325C11 42.7545 11 43.3313 11 43.9999C11 44.5522 11.4477 45 12 45H36C36.5523 45 37 44.553 37 44.0007C37 43.3338 37 42.3864 37 41.325C37 30.3 27.25 28.6392 27.25 24C27.25 19.3608 37 17.7 37 6.15C37 5.24278 37 4.52167 37 3.9996C37 3.44732 36.5523 3 36 3H12Z" fill="#262626"/>
</svg>
