<svg width="32" height="32" viewBox="0 0 32 32" fill="none" xmlns="http://www.w3.org/2000/svg">
<g clip-path="url(#clip0)">
<path fill-rule="evenodd" clip-rule="evenodd" d="M24.9413 17.421C25.1321 17.4087 25.3229 17.405 25.5131 17.4095C25.3223 17.426 25.1312 17.4297 24.9413 17.421ZM19.7174 27.1884C19.7781 27.2936 19.8413 27.3964 19.9069 27.4969C19.863 27.4072 19.8157 27.3185 19.7651 27.2307C19.7062 27.1288 19.6439 27.0301 19.5782 26.9348C19.6225 27.0199 19.6689 27.1045 19.7174 27.1884ZM20.0662 20.1253C19.9315 20.4127 19.7649 20.6865 19.5679 20.9408C19.7132 20.6583 19.8795 20.3856 20.0662 20.1253Z" fill="#3D3D3D"/>
<path fill-rule="evenodd" clip-rule="evenodd" d="M19.7651 27.2307C19.7062 27.1288 19.6439 27.0301 19.5782 26.9348C19.6225 27.0199 19.6689 27.1045 19.7174 27.1884C19.7781 27.2936 19.8413 27.3964 19.9069 27.4969C19.863 27.4072 19.8157 27.3185 19.7651 27.2307ZM12.0966 27.4927C12.2131 27.2542 12.3518 27.0255 12.5118 26.8101C12.3879 27.0451 12.2494 27.2731 12.0966 27.4927Z" fill="#3D3D3D"/>
<path fill-rule="evenodd" clip-rule="evenodd" d="M6.21913 17.2479C6.45867 17.229 6.69829 17.2234 6.93691 17.2309C6.69737 17.2566 6.45728 17.262 6.21913 17.2479ZM12.5118 26.8101C12.3879 27.0451 12.2494 27.2731 12.0966 27.4927C12.2131 27.2542 12.3518 27.0255 12.5118 26.8101Z" fill="#3D3D3D"/>
<path fill-rule="evenodd" clip-rule="evenodd" d="M10.2366 10.7349C10.1876 10.6501 10.1362 10.5676 10.0825 10.4873C10.1217 10.5617 10.1625 10.6356 10.2049 10.709C10.255 10.7959 10.3069 10.8811 10.3603 10.9647C10.3216 10.8874 10.2804 10.8108 10.2366 10.7349ZM6.93691 17.2309C6.69737 17.2566 6.45728 17.262 6.21913 17.2479C6.45867 17.229 6.69829 17.2234 6.93691 17.2309Z" fill="#3D3D3D"/>
<path fill-rule="evenodd" clip-rule="evenodd" d="M21.5343 10.644C21.4645 10.7685 21.3904 10.891 21.3122 11.0111C21.3799 10.8855 21.454 10.763 21.5343 10.644ZM15.5855 13.9639C15.8751 13.9274 16.1659 13.9205 16.4535 13.9421C16.1638 13.9689 15.8738 13.976 15.5855 13.9639ZM10.3603 10.9647C10.3216 10.8874 10.2804 10.8108 10.2366 10.7349C10.1876 10.6501 10.1362 10.5676 10.0825 10.4873C10.1217 10.5617 10.1625 10.6356 10.2049 10.709C10.255 10.7959 10.3069 10.8811 10.3603 10.9647Z" fill="#3D3D3D"/>
<path fill-rule="evenodd" clip-rule="evenodd" d="M25.5131 17.4095C25.3223 17.426 25.1312 17.4297 24.9413 17.421C25.1321 17.4087 25.3229 17.405 25.5131 17.4095ZM21.5343 10.644C21.4645 10.7685 21.3904 10.891 21.3122 11.0111C21.3799 10.8855 21.454 10.763 21.5343 10.644Z" fill="#3D3D3D"/>
<path fill-rule="evenodd" clip-rule="evenodd" d="M15.5855 13.9639C15.8751 13.9274 16.1659 13.9205 16.4535 13.9421C16.1638 13.9689 15.8738 13.976 15.5855 13.9639ZM20.0662 20.1253C19.9315 20.4127 19.7649 20.6865 19.5679 20.9408C19.7132 20.6583 19.8795 20.3856 20.0662 20.1253Z" fill="#3D3D3D"/>
<path fill-rule="evenodd" clip-rule="evenodd" d="M1.08196 27.0241C2.88522 30.1474 6.87901 31.2175 10.0023 29.4143C10.8615 28.9183 11.5652 28.2565 12.0966 27.4927C12.2131 27.2542 12.3518 27.0255 12.5118 26.8101C12.8553 26.3476 13.2969 25.9462 13.8276 25.6398C15.8046 24.4984 18.3055 25.0865 19.5782 26.9348C19.6439 27.0301 19.7062 27.1288 19.7651 27.2307C19.8157 27.3185 19.863 27.4072 19.9069 27.4969C21.7857 30.3756 25.6104 31.3145 28.6236 29.5749C31.742 27.7745 32.8104 23.787 31.01 20.6686C29.8302 18.6252 27.7113 17.462 25.5131 17.4095C25.3223 17.426 25.1312 17.4297 24.9413 17.421C23.5102 17.3553 22.1416 16.5842 21.3722 15.2516C20.5896 13.8961 20.6201 12.2945 21.3122 11.0111C21.3799 10.8855 21.454 10.763 21.5343 10.644C22.6223 8.70387 22.689 6.25619 21.4961 4.19007C19.6959 1.0721 15.709 0.00380032 12.591 1.80396C9.54647 3.56173 8.45621 7.40449 10.0825 10.4873C10.1362 10.5676 10.1876 10.6501 10.2366 10.7349C10.2804 10.8108 10.3216 10.8874 10.3603 10.9647C11.383 13.0059 10.6487 15.516 8.64562 16.6724C8.10341 16.9855 7.52179 17.1684 6.93691 17.2309C6.69737 17.2566 6.45728 17.262 6.21913 17.2479C5.28004 17.3219 4.34233 17.6013 3.47217 18.1037C0.348835 19.9069 -0.721299 23.9007 1.08196 27.0241ZM18.305 22.0414C16.226 23.2416 13.5677 22.5293 12.3675 20.4504C11.1672 18.3715 11.8795 15.7132 13.9584 14.513C14.4754 14.2145 15.0282 14.0343 15.5855 13.9639C15.8751 13.9274 16.1659 13.9205 16.4535 13.9421C17.8382 14.0462 19.1492 14.8106 19.8959 16.1039C20.6345 17.3832 20.6489 18.8819 20.0662 20.1253C19.9315 20.4127 19.7649 20.6865 19.5679 20.9408C19.2324 21.3739 18.8088 21.7505 18.305 22.0414Z" fill="#3D3D3D"/>
</g>
<defs>
<clipPath id="clip0">
<rect width="32" height="32" fill="white"/>
</clipPath>
</defs>
</svg>
